<svg xmlns="http://www.w3.org/2000/svg" viewBox="0 0 64 64" role="img" aria-label="chill-remna-bot">
  <defs>
    <linearGradient id="bg" x1="0" y1="0" x2="1" y2="1">
      <stop offset="0" stop-color="#5b8cff"/>
      <stop offset="1" stop-color="#27d3a2"/>
    </linearGradient>
  </defs>
  <rect x="2" y="2" width="60" height="60" rx="15" fill="url(#bg)"/>
  <path d="M32 12c5 3.5 10 4.6 15 4.8.6 9.7-1.2 22.4-15 30-13.8-7.6-15.6-20.3-15-30 5-.2 10-1.3 15-4.8z"
        fill="#0c0f17" opacity=".22"/>
  <path d="M32 13.5c4.6 3.2 9.2 4.2 13.7 4.4.5 8.9-1.1 20.4-13.7 27.4C19.4 38.3 17.8 26.8 18.3 17.9c4.5-.2 9.1-1.2 13.7-4.4z"
        fill="none" stroke="#eaf1ff" stroke-width="2" stroke-linejoin="round"/>
  <path d="M34.5 22.5l-9 12h6l-1.5 9 9-12h-6z" fill="#eaf1ff"/>
</svg>
